<svg width="4" height="16" viewBox="0 0 4 16" fill="none" xmlns="http://www.w3.org/2000/svg">
<path d="M2.15224 8.65853C2.61248 8.65853 2.98557 8.28543 2.98557 7.82519C2.98557 7.36496 2.61248 6.99186 2.15224 6.99186C1.692 6.99186 1.31891 7.36496 1.31891 7.82519C1.31891 8.28543 1.692 8.65853 2.15224 8.65853Z" stroke="#98A2B3" stroke-width="1.66667" stroke-linecap="round" stroke-linejoin="round"/>
<path d="M2.15224 2.82519C2.61248 2.82519 2.98557 2.4521 2.98557 1.99186C2.98557 1.53162 2.61248 1.15853 2.15224 1.15853C1.692 1.15853 1.31891 1.53162 1.31891 1.99186C1.31891 2.4521 1.692 2.82519 2.15224 2.82519Z" stroke="#98A2B3" stroke-width="1.66667" stroke-linecap="round" stroke-linejoin="round"/>
<path d="M2.15224 14.4919C2.61248 14.4919 2.98557 14.1188 2.98557 13.6585C2.98557 13.1983 2.61248 12.8252 2.15224 12.8252C1.692 12.8252 1.31891 13.1983 1.31891 13.6585C1.31891 14.1188 1.692 14.4919 2.15224 14.4919Z" stroke="#98A2B3" stroke-width="1.66667" stroke-linecap="round" stroke-linejoin="round"/>
</svg>
